<?xml version="1.0" encoding="UTF-8" standalone="no"?>
<!-- Created with Inkscape (http://www.inkscape.org/) -->

<svg
   width="1354.0231"
   height="219.99997"
   viewBox="0 0 358.25193 58.208327"
   version="1.1"
   id="svg5"
   inkscape:version="1.1 (c68e22c387, 2021-05-23)"
   sodipodi:docname="애니플러스.svg"
   xmlns:inkscape="http://www.inkscape.org/namespaces/inkscape"
   xmlns:sodipodi="http://sodipodi.sourceforge.net/DTD/sodipodi-0.dtd"
   xmlns="http://www.w3.org/2000/svg"
   xmlns:svg="http://www.w3.org/2000/svg">
  <sodipodi:namedview
     id="namedview7"
     pagecolor="#ffffff"
     bordercolor="#666666"
     borderopacity="1.0"
     inkscape:pageshadow="2"
     inkscape:pageopacity="0.0"
     inkscape:pagecheckerboard="0"
     inkscape:document-units="mm"
     showgrid="false"
     lock-margins="true"
     units="px"
     fit-margin-top="10"
     fit-margin-left="10"
     fit-margin-right="10"
     fit-margin-bottom="10"
     inkscape:zoom="0.71446409"
     inkscape:cx="684.42908"
     inkscape:cy="41.289689"
     inkscape:window-width="1920"
     inkscape:window-height="991"
     inkscape:window-x="2391"
     inkscape:window-y="-9"
     inkscape:window-maximized="1"
     inkscape:current-layer="layer1" />
  <defs
     id="defs2" />
  <g
     inkscape:label="레이어 1"
     inkscape:groupmode="layer"
     id="layer1"
     transform="translate(42.991348,-137.58334)">
    <path
       d="M 94.774681,193.14581 H 79.265174 v -52.87332 h 15.509507 z"
       style="fill:#ff5d24;fill-opacity:1;fill-rule:nonzero;stroke:none;stroke-width:0.352489"
       id="path872" />
    <path
       d="m 241.05627,140.22917 v 26.43665 c 0,6.03497 -4.89218,10.92716 -10.92715,10.92716 -6.03496,0 -10.92715,-4.89217 -10.92715,-10.92715 v -26.43664 h -15.5095 v 37.36874 c 0,8.56301 6.94156,15.50458 15.50422,15.50458 h 21.86452 c 8.56301,0 15.50457,-6.94157 15.50457,-15.50458 v -37.36874 z"
       style="fill:#ff5d24;fill-opacity:1;fill-rule:nonzero;stroke:none;stroke-width:0.352489"
       id="path876" />
    <path
       d="m 132.13863,162.12679 h -18.6819 v -6.34476 h 18.6819 c 1.75222,0 3.1724,1.42016 3.1724,3.17239 0,1.7522 -1.42018,3.17241 -3.1724,3.17241 M 97.947218,140.27249 v 52.87334 h 15.509512 v -15.50952 h 18.6819 c 10.3177,0 18.6819,-8.3642 18.6819,-18.68189 0,-10.31769 -8.3642,-18.68191 -18.6819,-18.68191 z"
       style="fill:#ff5d24;fill-opacity:1;fill-rule:nonzero;stroke:none;stroke-width:0.352489"
       id="path880" />
    <path
       d="m 60.583379,140.27249 v 36.24327 L 43.682952,140.27249 h -23.26426 v 36.66871 l 7.556302,16.20462 h 7.953205 v -36.24325 l 16.900427,36.24325 h 23.26426 v -52.87333 z"
       style="fill:#ff5d24;fill-opacity:1;fill-rule:nonzero;stroke:none;stroke-width:0.352489"
       id="path884" />
    <path
       d="m -0.18047531,140.27242 h -3.5249e-4 -15.5091542 -3.52e-4 l -24.655181,52.87335 h 31.7655844 l 7.2320124,-15.50953 H -17.603995 l 9.6687665,-20.7341 16.9004272,36.24362 H 24.474706 Z"
       style="fill:#ff5d24;fill-opacity:1;fill-rule:nonzero;stroke:none;stroke-width:0.352489"
       id="path888" />
    <path
       d="m 276.83713,155.73868 h 28.5456 l 7.23201,-15.5095 h -35.77761 c -9.44177,0 -17.0957,7.65394 -17.0957,17.09572 0,9.44177 7.65393,17.09572 17.0957,17.09572 h 18.6819 c 0.87594,0 1.5862,0.71024 1.5862,1.5862 0,0.87595 -0.71026,1.58623 -1.5862,1.58623 h -35.78078 v 0.005 c 0,6.45053 -3.28802,12.14749 -8.27538,15.50425 h 44.05616 c 9.44177,0 17.09571,-7.65396 17.09571,-17.09572 0,-9.44175 -7.65394,-17.09572 -17.09571,-17.09572 h -18.6819 c -0.87593,0 -1.5862,-0.71025 -1.5862,-1.58621 0,-0.87594 0.71027,-1.58622 1.5862,-1.58622"
       style="fill:#ff5d24;fill-opacity:1;fill-rule:nonzero;stroke:none;stroke-width:0.352489"
       id="path892" />
    <path
       d="M 200.52092,177.63631 H 166.32986 V 140.2725 h -15.50951 v 7.35185 c 2.01236,3.306 3.1724,7.18513 3.1724,11.33005 0,4.14492 -1.16004,8.02406 -3.1724,11.33005 v 22.86136 h 58.04292 c -5.01521,-3.34406 -8.32931,-9.04591 -8.34235,-15.5095"
       style="fill:#ff5d24;fill-opacity:1;fill-rule:nonzero;stroke:none;stroke-width:0.352489"
       id="path896" />
  </g>
</svg>
