<!DOCTYPE svg PUBLIC "-//W3C//DTD SVG 1.1//EN" "http://www.w3.org/Graphics/SVG/1.1/DTD/svg11.dtd">
<!-- Uploaded to: SVG Repo, www.svgrepo.com, Transformed by: SVG Repo Mixer Tools -->
<svg fill="#e6e6e6" width="106px" height="106px" viewBox="0 0 256 256" id="Flat" xmlns="http://www.w3.org/2000/svg" stroke="#e6e6e6">
<g id="SVGRepo_bgCarrier" stroke-width="0"/>
<g id="SVGRepo_tracerCarrier" stroke-linecap="round" stroke-linejoin="round" stroke="#CCCCCC" stroke-width="7.168000000000001"> <path d="M220,48V88a12,12,0,0,1-24,0V60H168a12,12,0,0,1,0-24h40A12.00028,12.00028,0,0,1,220,48ZM88,196H60V168a12,12,0,0,0-24,0v40a12.00028,12.00028,0,0,0,12,12H88a12,12,0,0,0,0-24Zm120-40a12.00028,12.00028,0,0,0-12,12v28H168a12,12,0,0,0,0,24h40a12.00028,12.00028,0,0,0,12-12V168A12.00028,12.00028,0,0,0,208,156ZM88,36H48A12.00028,12.00028,0,0,0,36,48V88a12,12,0,0,0,24,0V60H88a12,12,0,0,0,0-24Z"/> </g>
<g id="SVGRepo_iconCarrier"> <path d="M220,48V88a12,12,0,0,1-24,0V60H168a12,12,0,0,1,0-24h40A12.00028,12.00028,0,0,1,220,48ZM88,196H60V168a12,12,0,0,0-24,0v40a12.00028,12.00028,0,0,0,12,12H88a12,12,0,0,0,0-24Zm120-40a12.00028,12.00028,0,0,0-12,12v28H168a12,12,0,0,0,0,24h40a12.00028,12.00028,0,0,0,12-12V168A12.00028,12.00028,0,0,0,208,156ZM88,36H48A12.00028,12.00028,0,0,0,36,48V88a12,12,0,0,0,24,0V60H88a12,12,0,0,0,0-24Z"/> </g>
</svg>